<?xml version="1.0" standalone="no"?>
<!DOCTYPE svg PUBLIC "-//W3C//DTD SVG 20010904//EN"
 "http://www.w3.org/TR/2001/REC-SVG-20010904/DTD/svg10.dtd">
<svg version="1.0" xmlns="http://www.w3.org/2000/svg"
 width="700.000000pt" height="700.000000pt" viewBox="0 0 700.000000 700.000000"
 preserveAspectRatio="xMidYMid meet">
<metadata>
Created by potrace 1.11, written by Peter Selinger 2001-2013
</metadata>
<g transform="translate(0.000000,700.000000) scale(0.100000,-0.100000)"
fill="#000000" stroke="none">
<path d="M2692 6983 c-57 -28 -57 -31 -57 -757 1 -361 0 -656 -2 -656 -2 0
-215 212 -475 472 -267 267 -487 479 -507 489 -32 15 -40 16 -71 3 -23 -10
-223 -203 -581 -561 -585 -584 -586 -585 -557 -650 7 -15 221 -236 475 -491
255 -255 463 -464 463 -466 0 -1 -287 -2 -637 -2 -711 1 -702 2 -729 -62 -21
-52 -21 -1553 1 -1605 25 -61 20 -61 720 -62 347 -1 633 -3 637 -4 4 0 -201
-209 -456 -463 -282 -282 -467 -476 -475 -496 -11 -26 -11 -38 -1 -65 16 -40
1080 -1110 1130 -1136 66 -35 68 -33 584 483 262 262 477 476 479 476 2 0 3
-296 2 -657 -1 -737 -1 -732 62 -758 30 -13 150 -15 804 -15 691 0 772 2 803
16 62 30 61 20 61 726 -1 631 -1 637 19 620 10 -9 212 -210 448 -446 252 -252
444 -436 466 -446 33 -16 40 -17 72 -4 45 19 1103 1073 1131 1127 36 70 35 72
-471 577 -253 253 -460 461 -460 463 0 1 298 3 663 2 738 0 726 -1 753 63 12
29 14 157 14 803 0 691 -2 772 -16 803 -30 62 -17 61 -751 61 -365 -1 -663 1
-663 2 0 2 207 210 461 464 302 302 466 473 475 496 13 29 13 41 3 67 -17 44
-1082 1113 -1133 1136 -35 16 -42 17 -74 3 -24 -10 -190 -169 -484 -463 -246
-247 -449 -448 -449 -447 -1 1 -3 288 -4 637 -1 483 -4 644 -14 673 -24 70 10
67 -855 67 -687 0 -775 -2 -804 -17z m1478 -172 c3 -1 6 -370 5 -821 0 -451 2
-820 5 -820 3 0 264 259 581 576 l576 576 477 -476 c262 -262 476 -479 476
-483 0 -5 -263 -271 -584 -592 -322 -322 -583 -587 -581 -590 2 -3 382 -6 844
-6 749 1 841 -1 842 -15 4 -59 3 -1330 -1 -1331 -3 -1 -381 -3 -840 -4 -459
-2 -839 -3 -845 -4 -5 -1 254 -265 578 -589 323 -323 587 -590 587 -595 0 -4
-214 -221 -476 -483 l-477 -476 -577 577 c-342 342 -579 572 -581 564 -3 -8
-4 -377 -4 -821 1 -559 -2 -808 -9 -809 -32 -3 -1323 -4 -1331 -2 -8 3 -11
266 -10 836 0 457 -1 838 -4 846 -2 7 -251 -234 -607 -590 l-603 -603 -480
480 -480 480 589 589 c324 324 587 591 585 594 -2 3 -370 6 -819 6 -559 -1
-816 2 -817 10 0 5 -1 308 -2 672 -1 434 1 664 8 666 6 2 376 3 823 3 446 -1
812 1 812 4 0 3 -263 268 -585 590 -322 322 -585 589 -585 594 0 5 214 223
476 484 l475 476 603 -603 c359 -359 605 -598 607 -590 3 8 5 388 4 846 -1
831 -1 832 20 835 17 3 1310 1 1325 -1z"/>
</g>
</svg>
