<?xml version="1.0" standalone="no"?>
<!DOCTYPE svg PUBLIC "-//W3C//DTD SVG 20010904//EN"
 "http://www.w3.org/TR/2001/REC-SVG-20010904/DTD/svg10.dtd">
<svg version="1.0" xmlns="http://www.w3.org/2000/svg"
 width="700.000000pt" height="700.000000pt" viewBox="0 0 700.000000 700.000000"
 preserveAspectRatio="xMidYMid meet">
<metadata>
Created by potrace 1.11, written by Peter Selinger 2001-2013
</metadata>
<g transform="translate(0.000000,700.000000) scale(0.100000,-0.100000)"
fill="#000000" stroke="none">
<path d="M2677 6966 c-19 -19 -36 -47 -38 -63 -2 -15 -4 -322 -3 -680 l0 -653
-25 23 c-13 12 -230 228 -482 479 -491 490 -488 487 -557 459 -16 -7 -276
-260 -579 -564 -574 -575 -565 -565 -555 -636 3 -16 153 -173 445 -466 243
-244 454 -456 470 -472 l27 -29 -636 0 c-400 1 -649 -3 -668 -9 -17 -5 -41
-25 -53 -44 l-23 -34 0 -784 0 -783 36 -35 c19 -19 42 -35 52 -36 9 -1 300 -2
647 -4 347 -1 633 -3 637 -4 3 0 -204 -211 -461 -469 -346 -345 -469 -474
-473 -496 -3 -16 -2 -43 3 -60 6 -22 162 -184 561 -583 591 -589 580 -581 650
-554 15 5 241 224 502 486 262 261 477 475 479 475 2 0 3 -303 3 -672 0 -636
1 -675 19 -701 38 -59 4 -57 845 -57 841 0 806 -2 845 57 18 26 19 64 19 675
0 638 0 647 19 630 11 -9 216 -214 457 -454 470 -469 468 -468 538 -439 45 19
1129 1111 1134 1143 11 62 -8 84 -480 556 -254 254 -462 463 -462 465 0 1 303
3 674 3 627 0 676 1 701 18 56 37 55 18 55 861 l0 775 -34 34 c-22 21 -46 35
-68 37 -18 2 -324 4 -680 4 -357 -1 -648 1 -648 2 0 2 208 211 462 465 472
472 491 494 480 556 -6 38 -1093 1127 -1139 1143 -70 23 -70 23 -529 -435
-237 -237 -443 -441 -456 -453 l-24 -23 0 649 0 649 -26 35 c-17 21 -39 37
-59 41 -17 3 -377 6 -800 6 l-768 0 -34 -34z m1544 -123 c2 -10 4 -366 3 -790
0 -425 0 -773 1 -773 1 0 251 250 556 555 l555 555 513 -514 514 -514 -554
-555 c-305 -305 -560 -561 -566 -569 -11 -13 80 -15 800 -15 l812 0 3 -720 c2
-680 1 -721 -15 -724 -10 -2 -377 -4 -815 -3 -790 0 -798 0 -780 -19 9 -11
264 -267 566 -569 l550 -549 -514 -514 -514 -514 -547 547 c-301 300 -551 548
-556 549 -6 2 -9 -300 -9 -769 1 -425 0 -779 -2 -785 -3 -10 -157 -13 -723
-13 l-719 0 -1 23 c0 12 -1 379 -1 815 -1 435 -2 792 -4 792 -1 0 -263 -261
-581 -579 l-580 -580 -513 514 -514 514 564 566 c311 311 566 567 567 568 2 2
-351 4 -785 3 l-787 0 -3 722 c-1 397 1 722 5 723 5 0 360 1 791 1 430 1 781
3 780 4 -2 2 -257 258 -568 569 l-564 566 514 514 514 514 579 -580 c318 -318
580 -579 582 -579 1 0 2 357 3 793 0 435 1 802 1 815 l1 22 719 0 c676 0 719
-1 722 -17z"/>
</g>
</svg>
