<?xml version="1.0" standalone="no"?>
<!DOCTYPE svg PUBLIC "-//W3C//DTD SVG 20010904//EN"
 "http://www.w3.org/TR/2001/REC-SVG-20010904/DTD/svg10.dtd">
<svg version="1.0" xmlns="http://www.w3.org/2000/svg"
 width="700.000000pt" height="700.000000pt" viewBox="0 0 700.000000 700.000000"
 preserveAspectRatio="xMidYMid meet">
<metadata>
Created by potrace 1.11, written by Peter Selinger 2001-2013
</metadata>
<g transform="translate(0.000000,700.000000) scale(0.100000,-0.100000)"
fill="#000000" stroke="none">
<path d="M3040 5566 c-18 -6 -43 -24 -54 -39 -20 -27 -21 -41 -23 -350 0 -177
-2 -326 -2 -332 -1 -5 -108 97 -238 227 -204 202 -243 237 -276 243 -22 4 -49
3 -66 -4 -42 -18 -677 -660 -683 -691 -10 -60 8 -83 257 -333 135 -135 245
-246 245 -248 0 -2 -157 -4 -349 -4 -339 0 -350 -1 -378 -21 -15 -11 -33 -36
-39 -54 -7 -22 -11 -182 -10 -491 l1 -459 33 -32 32 -33 340 -5 340 -5 -216
-215 c-118 -118 -224 -227 -235 -242 -22 -30 -27 -84 -11 -113 11 -21 622
-633 657 -660 11 -8 40 -15 64 -15 l44 0 244 242 c133 133 243 238 244 233 0
-6 1 -161 3 -345 2 -255 5 -341 15 -362 29 -58 37 -58 537 -58 496 1 493 1
526 57 9 15 17 31 17 36 1 4 1 161 1 348 l0 342 220 -221 c121 -121 234 -232
251 -246 33 -28 84 -34 122 -15 12 6 165 154 340 328 333 331 349 352 333 418
-5 18 -88 108 -239 260 l-231 233 322 0 c177 0 324 0 327 0 21 -1 65 35 79 64
14 30 16 88 16 486 0 494 -1 502 -58 531 -21 10 -105 14 -357 15 -181 1 -337
3 -345 3 -8 1 96 112 232 249 251 252 265 271 253 331 -6 32 1 24 -351 377
-323 325 -335 334 -402 319 -19 -4 -104 -82 -268 -245 l-239 -240 -5 340 -5
340 -33 32 -32 33 -459 1 c-308 1 -469 -3 -491 -10z m880 -604 l0 -474 342
341 341 341 288 -287 288 -288 -347 -347 c-191 -192 -345 -348 -342 -349 3 -1
221 -2 485 -2 l480 -2 3 -407 2 -408 -472 0 -473 0 333 -333 332 -332 -289
-289 -289 -288 -341 341 -341 341 0 -490 0 -490 -407 2 -408 3 -1 470 c-1 259
-2 477 -3 485 0 8 -153 -137 -339 -323 l-337 -337 -288 286 c-281 280 -287
287 -270 307 10 11 156 158 326 327 169 169 307 310 307 313 0 4 -211 7 -468
7 l-468 0 0 408 1 407 487 0 c425 0 485 2 475 15 -7 8 -162 165 -346 348
l-334 334 289 289 289 289 336 -336 c185 -185 338 -332 341 -328 2 5 3 214 3
464 -1 250 -1 457 1 461 1 3 185 5 408 5 l406 0 0 -474z"/>
</g>
</svg>
