<?xml version="1.0" encoding="UTF-8"?>
<svg width="300px" height="300px" viewBox="0 0 300 300" version="1.1" xmlns="http://www.w3.org/2000/svg" xmlns:xlink="http://www.w3.org/1999/xlink">
    <!-- Generator: Sketch 54.1 (76490) - https://sketchapp.com -->
    <title>ICON Copy 2</title>
    <desc>Created with Sketch.</desc>
    <g id="ICON-Copy-2" stroke="none" stroke-width="1" fill="none" fill-rule="evenodd">
        <path d="M195.814599,75.5816728 L171,100.396272 L171,66 C171,64.8954305 170.104569,64 169,64 L132,64 C130.895431,64 130,64.8954305 130,66 L130,100.276742 L105.304931,75.5816728 C104.523883,74.8006242 103.257553,74.8006242 102.476504,75.5816728 L76.3135531,101.744624 C75.5325045,102.525672 75.5325045,103.792002 76.3135531,104.573051 L101.740502,130 L66,130 C64.8954305,130 64,130.895431 64,132 L64,169 C64,170.104569 64.8954305,171 66,171 L93.1536312,171 L100.396272,171 L76.3135531,195.082719 C75.5325045,195.863767 75.5325045,197.130097 76.3135531,197.911146 L102.476504,224.074097 C103.257553,224.855145 104.523883,224.855145 105.304931,224.074097 L130,199.379028 L130,235 C130,236.104569 130.895431,237 132,237 L169,237 C170.104569,237 171,236.104569 171,235 L171,199.259498 L195.814599,224.074097 C196.595648,224.855145 197.861978,224.855145 198.643026,224.074097 L224.805977,197.911146 C225.587026,197.130097 225.587026,195.863767 224.805977,195.082719 L200.723258,171 L235,171 C236.104569,171 237,170.104569 237,169 L237,132 C237,130.895431 236.104569,130 235,130 L199.379028,130 L224.805977,104.573051 C225.587026,103.792002 225.587026,102.525672 224.805977,101.744624 L198.643026,75.5816728 C197.861978,74.8006242 196.595648,74.8006242 195.814599,75.5816728 Z" id="Combined-Shape" stroke="#FF5555" stroke-width="6"></path>
    </g>
</svg>