<?xml version="1.0" encoding="UTF-8"?>
<svg width="300px" height="300px" viewBox="0 0 300 300" version="1.1" xmlns="http://www.w3.org/2000/svg" xmlns:xlink="http://www.w3.org/1999/xlink">
    <!-- Generator: Sketch 54.1 (76490) - https://sketchapp.com -->
    <title>ICON Copy 4</title>
    <desc>Created with Sketch.</desc>
    <g id="ICON-Copy-4" stroke="none" stroke-width="1" fill="none" fill-rule="evenodd">
        <path d="M116,5 L116,68.832321 L70.5045515,23.3368724 C69.7235029,22.5558238 68.4571729,22.5558238 67.6761243,23.3368724 L22.2392629,68.7737339 C21.4582143,69.5547825 21.4582143,70.8211124 22.2392629,71.602161 L66.6371018,116 L5,116 C3.8954305,116 3,116.895431 3,118 L3,182 C3,183.104569 3.8954305,184 5,184 L66.6371018,184 L22.2392629,228.397839 C21.4582143,229.178888 21.4582143,230.445218 22.2392629,231.226266 L67.6761243,276.663128 C68.4571729,277.444176 69.7235029,277.444176 70.5045515,276.663128 L116,231.167679 L116,295 C116,296.104569 116.895431,297 118,297 L182,297 C183.104569,297 184,296.104569 184,295 L184,233.362898 L227.300229,276.663128 C228.081278,277.444176 229.347608,277.444176 230.128657,276.663128 L275.565518,231.226266 C276.346567,230.445218 276.346567,229.178888 275.565518,228.397839 L231.167679,184 L295,184 C296.104569,184 297,183.104569 297,182 L297,118 C297,116.895431 296.104569,116 295,116 L231.167679,116 L275.565518,71.602161 C276.346567,70.8211124 276.346567,69.5547825 275.565518,68.7737339 L230.128657,23.3368724 C229.347608,22.5558238 228.081278,22.5558238 227.300229,23.3368724 L184,66.6371018 L184,5 C184,3.8954305 183.104569,3 182,3 L118,3 C116.895431,3 116,3.8954305 116,5 Z" id="Combined-Shape" stroke="#FF5555" stroke-width="6"></path>
    </g>
</svg>