<?xml version="1.0" encoding="UTF-8"?>
<svg width="300px" height="300px" viewBox="0 0 300 300" version="1.1" xmlns="http://www.w3.org/2000/svg" xmlns:xlink="http://www.w3.org/1999/xlink">
    <!-- Generator: Sketch 54.1 (76490) - https://sketchapp.com -->
    <title>ICON Copy 4</title>
    <desc>Created with Sketch.</desc>
    <g id="ICON-Copy-4" stroke="none" stroke-width="1" fill="none" fill-rule="evenodd">
        <path d="M117,5 L117,71.2465345 L69.7974447,24.0439792 C69.4069204,23.6534549 68.7737554,23.6534549 68.3832311,24.0439792 L22.9463696,69.4808407 C22.5558454,69.871365 22.5558454,70.50453 22.9463696,70.8950543 L69.0513154,117 L5,117 C4.44771525,117 4,117.447715 4,118 L4,182 C4,182.552285 4.44771525,183 5,183 L69.0513154,183 L22.9463696,229.104946 C22.5558454,229.49547 22.5558454,230.128635 22.9463696,230.519159 L68.3832311,275.956021 C68.7737554,276.346545 69.4069204,276.346545 69.7974447,275.956021 L117,228.753465 L117,295 C117,295.552285 117.447715,296 118,296 L182,296 C182.552285,296 183,295.552285 183,295 L183,230.948685 L228.007336,275.956021 C228.39786,276.346545 229.031025,276.346545 229.42155,275.956021 L274.858411,230.519159 C275.248936,230.128635 275.248936,229.49547 274.858411,229.104946 L228.753465,183 L295,183 C295.552285,183 296,182.552285 296,182 L296,118 C296,117.447715 295.552285,117 295,117 L228.753465,117 L274.858411,70.8950543 C275.248936,70.50453 275.248936,69.871365 274.858411,69.4808407 L229.42155,24.0439792 C229.031025,23.6534549 228.39786,23.6534549 228.007336,24.0439792 L183,69.0513154 L183,5 C183,4.44771525 182.552285,4 182,4 L118,4 C117.447715,4 117,4.44771525 117,5 Z" id="Combined-Shape" stroke="#FF5555" stroke-width="8"></path>
    </g>
</svg>