<?xml version="1.0" encoding="UTF-8"?>
<svg width="174px" height="179px" viewBox="0 0 174 179" version="1.1" xmlns="http://www.w3.org/2000/svg" xmlns:xlink="http://www.w3.org/1999/xlink">
    <!-- Generator: Sketch 54.1 (76490) - https://sketchapp.com -->
    <title>Combined Shape</title>
    <desc>Created with Sketch.</desc>
    <g id="current" stroke="none" stroke-width="1" fill="none" fill-rule="evenodd">
        <g id="ICON" transform="translate(-63.000000, -61.000000)" stroke="#FF5555" stroke-width="2">
            <path d="M232,131 L196.139407,131 L224.692738,102.446669 C226.254836,100.884571 226.254836,98.3519115 224.692738,96.7898143 L203.479535,75.5766109 C201.917438,74.0145137 199.384778,74.0145137 197.822681,75.5766109 L167,106.399292 L167,66 C167,63.790861 165.209139,62 163,62 L133,62 C130.790861,62 129,63.790861 129,66 L129,104.129942 L102.305087,77.4350288 C100.742989,75.8729317 98.2103294,75.8729317 96.6482323,77.4350288 L75.4350288,98.6482323 C73.8729317,100.210329 73.8729317,102.742989 75.4350288,104.305087 L102.129942,131 L68,131 C65.790861,131 64,132.790861 64,135 L64,165 C64,167.209139 65.790861,169 68,169 L104.399292,169 L71.2505669,202.148725 C69.6884697,203.710822 69.6884697,206.243482 71.2505669,207.805579 L92.4637703,229.018782 C94.0258675,230.58088 96.5585274,230.58088 98.1206246,229.018782 L129,198.139407 L129,235 C129,237.209139 130.790861,239 133,239 L163,239 C165.209139,239 167,237.209139 167,235 L167,195.870058 L197.764502,226.63456 C199.326599,228.196657 201.859259,228.196657 203.421356,226.63456 L224.63456,205.421356 C226.196657,203.859259 226.196657,201.326599 224.63456,199.764502 L193.870058,169 L232,169 C234.209139,169 236,167.209139 236,165 L236,135 C236,132.790861 234.209139,131 232,131 Z" id="Combined-Shape"></path>
        </g>
    </g>
</svg>