<?xml version="1.0" encoding="UTF-8"?>
<svg width="300px" height="300px" viewBox="0 0 300 300" version="1.1" xmlns="http://www.w3.org/2000/svg" xmlns:xlink="http://www.w3.org/1999/xlink">
    <!-- Generator: Sketch 54.1 (76490) - https://sketchapp.com -->
    <title>ICON</title>
    <desc>Created with Sketch.</desc>
    <g id="ICON" stroke="none" stroke-width="1" fill="none" fill-rule="evenodd">
        <path d="M232,133 L191.31098,133 L223.278525,101.032455 C224.059573,100.251406 224.059573,98.9850764 223.278525,98.2040279 L202.065321,76.9908244 C201.284273,76.2097758 200.017943,76.2097758 199.236894,76.9908244 L165,111.227719 L165,66 C165,64.8954305 164.104569,64 163,64 L133,64 C131.895431,64 131,64.8954305 131,66 L131,108.958369 L100.890873,78.8492424 C100.109824,78.0681938 98.8434944,78.0681938 98.0624458,78.8492424 L76.8492424,100.062446 C76.0681938,100.843494 76.0681938,102.109824 76.8492424,102.890873 L106.958369,133 L68,133 C66.8954305,133 66,133.895431 66,135 L66,165 C66,166.104569 66.8954305,167 68,167 L109.227719,167 L72.6647805,203.562938 C71.8837319,204.343987 71.8837319,205.610317 72.6647805,206.391365 L93.8779839,227.604569 C94.6590325,228.385617 95.9253624,228.385617 96.706411,227.604569 L131,193.31098 L131,235 C131,236.104569 131.895431,237 133,237 L163,237 C164.104569,237 165,236.104569 165,235 L165,191.041631 L199.178716,225.220346 C199.959764,226.001395 201.226094,226.001395 202.007143,225.220346 L223.220346,204.007143 C224.001395,203.226094 224.001395,201.959764 223.220346,201.178716 L189.041631,167 L232,167 C233.104569,167 234,166.104569 234,165 L234,135 C234,133.895431 233.104569,133 232,133 Z" id="Combined-Shape" stroke="#FF5555" stroke-width="6"></path>
    </g>
</svg>