<?xml version="1.0" encoding="UTF-8"?>
<svg width="300px" height="300px" viewBox="0 0 300 300" version="1.1" xmlns="http://www.w3.org/2000/svg" xmlns:xlink="http://www.w3.org/1999/xlink">
    <!-- Generator: Sketch 54.1 (76490) - https://sketchapp.com -->
    <title>ICON</title>
    <desc>Created with Sketch.</desc>
    <g id="ICON" stroke="none" stroke-width="1" fill="none" fill-rule="evenodd">
        <path d="M237,133 L195.058603,133 L227.924296,101.052342 C227.944515,101.032502 227.944515,101.032502 227.964355,101.012284 C228.734263,100.220252 228.716329,98.9540487 227.924296,98.1841404 L206.000642,76.8728784 C205.224428,76.1183465 203.988771,76.1183465 203.212557,76.8728784 L168.017241,111.085085 L168.017241,66 C168.017241,64.8954305 167.121811,64 166.017241,64 L134.867816,64 C133.763247,64 132.867816,64.8954305 132.867816,66 L132.867816,108.815735 L101.918882,78.7312964 C101.142668,77.9767644 99.9070108,77.9767644 99.1307969,78.7312964 L77.2071423,100.042558 C76.4151102,100.812467 76.3971753,102.07867 77.1670836,102.870702 C77.1869239,102.89092 77.1869239,102.89092 77.2071423,102.91076 L108.161015,133 L68,133 C66.8954305,133 66,133.895431 66,135 L66,165 C66,166.104569 66.8954305,167 68,167 L110.495576,167 L72.9024372,203.543051 C72.8822188,203.562891 72.8822188,203.562891 72.8623785,203.583109 C72.0924702,204.375142 72.1104051,205.641345 72.9024372,206.411253 L94.8260918,227.722515 C95.6023057,228.477047 96.8379627,228.477047 97.6141766,227.722515 L132.867816,193.453614 L132.867816,235 C132.867816,236.104569 133.763247,237 134.867816,237 L166.017241,237 C167.121811,237 168.017241,236.104569 168.017241,235 L168.017241,191.184265 L203.152707,225.338292 C203.92892,226.092824 205.164577,226.092824 205.940791,225.338292 L227.864446,204.02703 C228.656478,203.257122 228.674413,201.990919 227.904505,201.198887 C227.884664,201.178668 227.884664,201.178668 227.864446,201.158828 L192.724042,167 L237,167 C238.104569,167 239,166.104569 239,165 L239,135 C239,133.895431 238.104569,133 237,133 Z" id="Combined-Shape" stroke="#FF5555" stroke-width="6"></path>
    </g>
</svg>